<svg width="86" height="66" viewBox="0 0 86 66" fill="none" xmlns="http://www.w3.org/2000/svg">
<circle cx="82.5" cy="57.5" r="3.5" fill="#AE7137"/>
<path d="M4.492 5.192H1.072V1.16H12.556V5.192H9.136V17H4.492V5.192ZM22.0956 6.86C22.8236 6.86 23.5276 7.004 24.2076 7.292C24.8956 7.572 25.4596 8.024 25.8996 8.648C26.3476 9.264 26.5716 10.076 26.5716 11.084V17H21.8436V11.816C21.8436 11.304 21.7316 10.9 21.5076 10.604C21.2916 10.3 20.9716 10.148 20.5476 10.148C20.2676 10.148 19.9996 10.216 19.7436 10.352C19.4956 10.488 19.2956 10.68 19.1436 10.928C18.9916 11.176 18.9156 11.472 18.9156 11.816V17H14.1876V0.487999H18.9156V8.384C19.0196 8.128 19.2236 7.884 19.5276 7.652C19.8316 7.42 20.2076 7.232 20.6556 7.088C21.1036 6.936 21.5836 6.86 22.0956 6.86ZM32.2975 13.004C32.3375 13.196 32.4375 13.36 32.5975 13.496C32.7655 13.624 32.9775 13.724 33.2335 13.796C33.4975 13.868 33.7935 13.904 34.1215 13.904C34.4735 13.904 34.8175 13.888 35.1535 13.856C35.4895 13.824 35.7975 13.772 36.0775 13.7C36.3575 13.628 36.5815 13.536 36.7495 13.424L38.4415 16.388C38.2895 16.484 38.0375 16.604 37.6855 16.748C37.3415 16.884 36.8535 17.008 36.2215 17.12C35.5975 17.232 34.7895 17.288 33.7975 17.288C32.6855 17.288 31.6775 17.1 30.7735 16.724C29.8695 16.348 29.1495 15.768 28.6135 14.984C28.0855 14.192 27.8215 13.188 27.8215 11.972C27.8215 11.012 28.0415 10.148 28.4815 9.38C28.9215 8.604 29.5575 7.992 30.3895 7.544C31.2215 7.088 32.2295 6.86 33.4135 6.86C34.5575 6.86 35.5455 7.052 36.3775 7.436C37.2175 7.82 37.8615 8.412 38.3095 9.212C38.7655 10.004 38.9935 11.02 38.9935 12.26C38.9935 12.324 38.9895 12.452 38.9815 12.644C38.9815 12.828 38.9735 12.948 38.9575 13.004H32.2975ZM34.5415 11.072C34.5335 10.808 34.4815 10.588 34.3855 10.412C34.2975 10.236 34.1775 10.108 34.0255 10.028C33.8735 9.94 33.6935 9.896 33.4855 9.896C33.3015 9.896 33.1255 9.936 32.9575 10.016C32.7975 10.088 32.6655 10.212 32.5615 10.388C32.4575 10.556 32.4015 10.784 32.3935 11.072H34.5415ZM1.936 23.16H8.08C9.008 23.16 9.864 23.292 10.648 23.556C11.432 23.812 12.06 24.228 12.532 24.804C13.012 25.372 13.252 26.128 13.252 27.072C13.252 27.672 13.14 28.208 12.916 28.68C12.7 29.144 12.396 29.528 12.004 29.832C11.62 30.136 11.176 30.352 10.672 30.48C11.136 30.544 11.56 30.672 11.944 30.864C12.328 31.048 12.66 31.3 12.94 31.62C13.228 31.94 13.448 32.336 13.6 32.808C13.76 33.28 13.84 33.832 13.84 34.464C13.84 35.368 13.624 36.16 13.192 36.84C12.768 37.52 12.16 38.052 11.368 38.436C10.584 38.812 9.644 39 8.548 39H1.936V23.16ZM6.592 35.328H7.24C7.584 35.328 7.88 35.292 8.128 35.22C8.384 35.14 8.58 35.004 8.716 34.812C8.86 34.612 8.932 34.336 8.932 33.984C8.932 33.456 8.78 33.112 8.476 32.952C8.172 32.784 7.76 32.7 7.24 32.7H6.592V35.328ZM6.592 29.112H7.216C7.512 29.112 7.764 29.08 7.972 29.016C8.188 28.944 8.352 28.82 8.464 28.644C8.584 28.468 8.644 28.228 8.644 27.924C8.644 27.46 8.516 27.164 8.26 27.036C8.012 26.9 7.664 26.832 7.216 26.832H6.592V29.112ZM19.7116 35.004C19.7516 35.196 19.8516 35.36 20.0116 35.496C20.1796 35.624 20.3916 35.724 20.6476 35.796C20.9116 35.868 21.2076 35.904 21.5356 35.904C21.8876 35.904 22.2316 35.888 22.5676 35.856C22.9036 35.824 23.2116 35.772 23.4916 35.7C23.7716 35.628 23.9956 35.536 24.1636 35.424L25.8556 38.388C25.7036 38.484 25.4516 38.604 25.0996 38.748C24.7556 38.884 24.2676 39.008 23.6356 39.12C23.0116 39.232 22.2036 39.288 21.2116 39.288C20.0996 39.288 19.0916 39.1 18.1876 38.724C17.2836 38.348 16.5636 37.768 16.0276 36.984C15.4996 36.192 15.2356 35.188 15.2356 33.972C15.2356 33.012 15.4556 32.148 15.8956 31.38C16.3356 30.604 16.9716 29.992 17.8036 29.544C18.6356 29.088 19.6436 28.86 20.8276 28.86C21.9716 28.86 22.9596 29.052 23.7916 29.436C24.6316 29.82 25.2756 30.412 25.7236 31.212C26.1796 32.004 26.4076 33.02 26.4076 34.26C26.4076 34.324 26.4036 34.452 26.3956 34.644C26.3956 34.828 26.3876 34.948 26.3716 35.004H19.7116ZM21.9556 33.072C21.9476 32.808 21.8956 32.588 21.7996 32.412C21.7116 32.236 21.5916 32.108 21.4396 32.028C21.2876 31.94 21.1076 31.896 20.8996 31.896C20.7156 31.896 20.5396 31.936 20.3716 32.016C20.2116 32.088 20.0796 32.212 19.9756 32.388C19.8716 32.556 19.8156 32.784 19.8076 33.072H21.9556ZM32.9397 28.86C33.6677 28.86 34.3317 28.916 34.9317 29.028C35.5317 29.14 36.0277 29.264 36.4197 29.4C36.8117 29.528 37.0517 29.624 37.1397 29.688L35.6997 32.412C35.5557 32.316 35.2797 32.184 34.8717 32.016C34.4637 31.848 34.0117 31.764 33.5157 31.764C33.2437 31.764 33.0197 31.788 32.8437 31.836C32.6677 31.876 32.5797 31.96 32.5797 32.088C32.5797 32.216 32.6877 32.324 32.9037 32.412C33.1197 32.492 33.4597 32.568 33.9237 32.64C34.3637 32.72 34.8357 32.864 35.3397 33.072C35.8517 33.272 36.2877 33.58 36.6477 33.996C37.0077 34.412 37.1877 34.972 37.1877 35.676C37.1877 36.444 37.0157 37.068 36.6717 37.548C36.3357 38.02 35.8957 38.384 35.3517 38.64C34.8157 38.888 34.2397 39.056 33.6237 39.144C33.0077 39.24 32.4277 39.288 31.8837 39.288C31.0357 39.288 30.3077 39.216 29.6997 39.072C29.0997 38.928 28.6237 38.768 28.2717 38.592C27.9197 38.416 27.6837 38.284 27.5637 38.196L28.9677 35.16C29.1757 35.32 29.5117 35.508 29.9757 35.724C30.4477 35.94 30.9237 36.048 31.4037 36.048C31.8037 36.048 32.0957 36.02 32.2797 35.964C32.4637 35.9 32.5557 35.812 32.5557 35.7C32.5557 35.612 32.5117 35.536 32.4237 35.472C32.3357 35.408 32.1957 35.348 32.0037 35.292C31.8117 35.236 31.5597 35.18 31.2477 35.124C30.9677 35.068 30.6477 34.976 30.2877 34.848C29.9357 34.72 29.5917 34.536 29.2557 34.296C28.9277 34.056 28.6557 33.744 28.4397 33.36C28.2237 32.976 28.1157 32.508 28.1157 31.956C28.1157 31.244 28.3477 30.66 28.8117 30.204C29.2757 29.748 29.8757 29.412 30.6117 29.196C31.3477 28.972 32.1237 28.86 32.9397 28.86ZM37.7969 29.148H39.2969V25.104H43.9649V29.148H45.9569V32.988H43.9649V34.26C43.9649 34.548 43.9969 34.812 44.0609 35.052C44.1329 35.292 44.3169 35.412 44.6129 35.412C44.7729 35.412 44.9209 35.372 45.0569 35.292C45.2009 35.212 45.2889 35.156 45.3209 35.124L46.8569 38.448C46.7929 38.504 46.5849 38.6 46.2329 38.736C45.8889 38.872 45.4489 38.996 44.9129 39.108C44.3849 39.228 43.8049 39.288 43.1729 39.288C42.0369 39.288 41.1049 38.98 40.3769 38.364C39.6569 37.748 39.2969 36.808 39.2969 35.544V32.988H37.7969V29.148ZM59.8555 39.288C58.7355 39.288 57.7395 39.072 56.8675 38.64C55.9955 38.2 55.3115 37.592 54.8155 36.816C54.3195 36.032 54.0715 35.128 54.0715 34.104C54.0715 33.08 54.3195 32.176 54.8155 31.392C55.3115 30.6 55.9955 29.98 56.8675 29.532C57.7395 29.084 58.7355 28.86 59.8555 28.86C60.9755 28.86 61.9635 29.084 62.8195 29.532C63.6755 29.98 64.3435 30.6 64.8235 31.392C65.3115 32.176 65.5555 33.08 65.5555 34.104C65.5555 35.128 65.3115 36.032 64.8235 36.816C64.3435 37.592 63.6755 38.2 62.8195 38.64C61.9635 39.072 60.9755 39.288 59.8555 39.288ZM59.8555 35.448C60.1195 35.448 60.3435 35.396 60.5275 35.292C60.7115 35.18 60.8515 35.02 60.9475 34.812C61.0515 34.604 61.1035 34.36 61.1035 34.08C61.1035 33.8 61.0515 33.556 60.9475 33.348C60.8515 33.14 60.7115 32.98 60.5275 32.868C60.3435 32.756 60.1195 32.7 59.8555 32.7C59.5915 32.7 59.3635 32.756 59.1715 32.868C58.9875 32.98 58.8435 33.14 58.7395 33.348C58.6355 33.556 58.5835 33.8 58.5835 34.08C58.5835 34.36 58.6355 34.604 58.7395 34.812C58.8435 35.02 58.9875 35.18 59.1715 35.292C59.3635 35.396 59.5915 35.448 59.8555 35.448ZM66.4186 29.148H67.7866V26.676C67.7866 25.748 68.0106 24.952 68.4586 24.288C68.9146 23.616 69.5026 23.1 70.2226 22.74C70.9426 22.38 71.6986 22.2 72.4906 22.2C73.4746 22.2 74.2186 22.332 74.7226 22.596C75.2346 22.852 75.5626 23.052 75.7066 23.196L73.9306 26.616C73.8906 26.552 73.8066 26.464 73.6786 26.352C73.5506 26.232 73.3946 26.172 73.2106 26.172C73.0986 26.172 72.9866 26.2 72.8746 26.256C72.7706 26.312 72.6826 26.404 72.6106 26.532C72.5386 26.66 72.5026 26.836 72.5026 27.06V29.148H74.6986V32.988H72.5026V39H67.7866V32.988H66.4186V29.148ZM7.144 45.16H11.692L18.22 61H13.264L12.256 58.252H6.604L5.584 61H0.616L7.144 45.16ZM8.164 54.22H10.696L9.448 50.728H9.412L8.164 54.22ZM23.4661 61H18.7381V51.148H23.4661V52.552H23.4061C23.4941 52.376 23.6581 52.156 23.8981 51.892C24.1461 51.628 24.4901 51.392 24.9301 51.184C25.3781 50.968 25.9381 50.86 26.6101 50.86C27.0581 50.86 27.4861 50.936 27.8941 51.088C28.3021 51.232 28.6061 51.376 28.8061 51.52L26.9941 55.336C26.8901 55.176 26.6941 55.016 26.4061 54.856C26.1181 54.688 25.7581 54.604 25.3261 54.604C24.8621 54.604 24.4941 54.7 24.2221 54.892C23.9501 55.076 23.7541 55.308 23.6341 55.588C23.5221 55.86 23.4661 56.128 23.4661 56.392V61ZM34.5899 61.288C33.4699 61.288 32.4739 61.072 31.6019 60.64C30.7299 60.2 30.0459 59.592 29.5499 58.816C29.0539 58.032 28.8059 57.128 28.8059 56.104C28.8059 55.08 29.0539 54.176 29.5499 53.392C30.0459 52.6 30.7299 51.98 31.6019 51.532C32.4739 51.084 33.4699 50.86 34.5899 50.86C35.7099 50.86 36.6979 51.084 37.5539 51.532C38.4099 51.98 39.0779 52.6 39.5579 53.392C40.0459 54.176 40.2899 55.08 40.2899 56.104C40.2899 57.128 40.0459 58.032 39.5579 58.816C39.0779 59.592 38.4099 60.2 37.5539 60.64C36.6979 61.072 35.7099 61.288 34.5899 61.288ZM34.5899 57.448C34.8539 57.448 35.0779 57.396 35.2619 57.292C35.4459 57.18 35.5859 57.02 35.6819 56.812C35.7859 56.604 35.8379 56.36 35.8379 56.08C35.8379 55.8 35.7859 55.556 35.6819 55.348C35.5859 55.14 35.4459 54.98 35.2619 54.868C35.0779 54.756 34.8539 54.7 34.5899 54.7C34.3259 54.7 34.0979 54.756 33.9059 54.868C33.7219 54.98 33.5779 55.14 33.4739 55.348C33.3699 55.556 33.3179 55.8 33.3179 56.08C33.3179 56.36 33.3699 56.604 33.4739 56.812C33.5779 57.02 33.7219 57.18 33.9059 57.292C34.0979 57.396 34.3259 57.448 34.5899 57.448ZM56.6307 50.86C57.3827 50.86 58.0587 51.012 58.6587 51.316C59.2667 51.612 59.7467 52.08 60.0987 52.72C60.4587 53.352 60.6387 54.172 60.6387 55.18V61H55.9947V55.816C55.9947 55.392 55.9227 55.008 55.7787 54.664C55.6347 54.32 55.3107 54.148 54.8067 54.148C54.4707 54.148 54.1987 54.232 53.9907 54.4C53.7827 54.56 53.6307 54.768 53.5347 55.024C53.4467 55.272 53.4027 55.536 53.4027 55.816V61H49.0947V55.816C49.0947 55.392 49.0267 55.008 48.8907 54.664C48.7627 54.32 48.4427 54.148 47.9307 54.148C47.5947 54.148 47.3187 54.232 47.1027 54.4C46.8947 54.56 46.7427 54.768 46.6467 55.024C46.5507 55.272 46.5027 55.536 46.5027 55.816V61H41.8227V51.148H46.5027V52.48C46.6067 52.232 46.8307 51.984 47.1747 51.736C47.5267 51.488 47.9467 51.28 48.4347 51.112C48.9307 50.944 49.4387 50.86 49.9587 50.86C50.5347 50.86 51.0147 50.924 51.3987 51.052C51.7907 51.172 52.1187 51.356 52.3827 51.604C52.6467 51.844 52.8787 52.14 53.0787 52.492C53.1827 52.244 53.4067 51.996 53.7507 51.748C54.0947 51.492 54.5187 51.28 55.0227 51.112C55.5267 50.944 56.0627 50.86 56.6307 50.86ZM66.2584 57.004C66.2984 57.196 66.3984 57.36 66.5584 57.496C66.7264 57.624 66.9384 57.724 67.1944 57.796C67.4584 57.868 67.7544 57.904 68.0824 57.904C68.4344 57.904 68.7784 57.888 69.1144 57.856C69.4504 57.824 69.7584 57.772 70.0384 57.7C70.3184 57.628 70.5424 57.536 70.7104 57.424L72.4024 60.388C72.2504 60.484 71.9984 60.604 71.6464 60.748C71.3024 60.884 70.8144 61.008 70.1824 61.12C69.5584 61.232 68.7504 61.288 67.7584 61.288C66.6464 61.288 65.6384 61.1 64.7344 60.724C63.8304 60.348 63.1104 59.768 62.5744 58.984C62.0464 58.192 61.7824 57.188 61.7824 55.972C61.7824 55.012 62.0024 54.148 62.4424 53.38C62.8824 52.604 63.5184 51.992 64.3504 51.544C65.1824 51.088 66.1904 50.86 67.3744 50.86C68.5184 50.86 69.5064 51.052 70.3384 51.436C71.1784 51.82 71.8224 52.412 72.2704 53.212C72.7264 54.004 72.9544 55.02 72.9544 56.26C72.9544 56.324 72.9504 56.452 72.9424 56.644C72.9424 56.828 72.9344 56.948 72.9184 57.004H66.2584ZM68.5024 55.072C68.4944 54.808 68.4424 54.588 68.3464 54.412C68.2584 54.236 68.1384 54.108 67.9864 54.028C67.8344 53.94 67.6544 53.896 67.4464 53.896C67.2624 53.896 67.0864 53.936 66.9184 54.016C66.7584 54.088 66.6264 54.212 66.5224 54.388C66.4184 54.556 66.3624 54.784 66.3544 55.072H68.5024Z" fill="#AE7137"/>
</svg>
