<svg width="118" height="44" viewBox="0 0 118 44" fill="none" xmlns="http://www.w3.org/2000/svg">
<circle cx="113.75" cy="35.5" r="3.5" fill="#AE7137"/>
<path d="M9.01544 5.192H5.59544V1.16H17.0794V5.192H13.6594V17H9.01544V5.192ZM26.6191 6.86C27.3471 6.86 28.0511 7.004 28.7311 7.292C29.4191 7.572 29.9831 8.024 30.4231 8.648C30.8711 9.264 31.0951 10.076 31.0951 11.084V17H26.3671V11.816C26.3671 11.304 26.2551 10.9 26.0311 10.604C25.8151 10.3 25.4951 10.148 25.0711 10.148C24.7911 10.148 24.5231 10.216 24.2671 10.352C24.0191 10.488 23.8191 10.68 23.6671 10.928C23.5151 11.176 23.4391 11.472 23.4391 11.816V17H18.7111V0.487999H23.4391V8.384C23.5431 8.128 23.7471 7.884 24.0511 7.652C24.3551 7.42 24.7311 7.232 25.1791 7.088C25.6271 6.936 26.1071 6.86 26.6191 6.86ZM36.8209 13.004C36.8609 13.196 36.9609 13.36 37.1209 13.496C37.2889 13.624 37.5009 13.724 37.7569 13.796C38.0209 13.868 38.3169 13.904 38.6449 13.904C38.9969 13.904 39.3409 13.888 39.6769 13.856C40.0129 13.824 40.3209 13.772 40.6009 13.7C40.8809 13.628 41.1049 13.536 41.2729 13.424L42.9649 16.388C42.8129 16.484 42.5609 16.604 42.2089 16.748C41.8649 16.884 41.3769 17.008 40.7449 17.12C40.1209 17.232 39.3129 17.288 38.3209 17.288C37.2089 17.288 36.2009 17.1 35.2969 16.724C34.3929 16.348 33.6729 15.768 33.1369 14.984C32.6089 14.192 32.3449 13.188 32.3449 11.972C32.3449 11.012 32.5649 10.148 33.0049 9.38C33.4449 8.604 34.0809 7.992 34.9129 7.544C35.7449 7.088 36.7529 6.86 37.9369 6.86C39.0809 6.86 40.0689 7.052 40.9009 7.436C41.7409 7.82 42.3849 8.412 42.8329 9.212C43.2889 10.004 43.5169 11.02 43.5169 12.26C43.5169 12.324 43.5129 12.452 43.5049 12.644C43.5049 12.828 43.4969 12.948 43.4809 13.004H36.8209ZM39.0649 11.072C39.0569 10.808 39.0049 10.588 38.9089 10.412C38.8209 10.236 38.7009 10.108 38.5489 10.028C38.3969 9.94 38.2169 9.896 38.0089 9.896C37.8249 9.896 37.6489 9.936 37.4809 10.016C37.3209 10.088 37.1889 10.212 37.0849 10.388C36.9809 10.556 36.9249 10.784 36.9169 11.072H39.0649ZM51.8579 1.16H58.0019C58.9299 1.16 59.7859 1.292 60.5699 1.556C61.3539 1.812 61.9819 2.228 62.4539 2.804C62.9339 3.372 63.1739 4.128 63.1739 5.072C63.1739 5.672 63.0619 6.208 62.8379 6.68C62.6219 7.144 62.3179 7.528 61.9259 7.832C61.5419 8.136 61.0979 8.352 60.5939 8.48C61.0579 8.544 61.4819 8.672 61.8659 8.864C62.2499 9.048 62.5819 9.3 62.8619 9.62C63.1499 9.94 63.3699 10.336 63.5219 10.808C63.6819 11.28 63.7619 11.832 63.7619 12.464C63.7619 13.368 63.5459 14.16 63.1139 14.84C62.6899 15.52 62.0819 16.052 61.2899 16.436C60.5059 16.812 59.5659 17 58.4699 17H51.8579V1.16ZM56.5139 13.328H57.1619C57.5059 13.328 57.8019 13.292 58.0499 13.22C58.3059 13.14 58.5019 13.004 58.6379 12.812C58.7819 12.612 58.8539 12.336 58.8539 11.984C58.8539 11.456 58.7019 11.112 58.3979 10.952C58.0939 10.784 57.6819 10.7 57.1619 10.7H56.5139V13.328ZM56.5139 7.112H57.1379C57.4339 7.112 57.6859 7.08 57.8939 7.016C58.1099 6.944 58.2739 6.82 58.3859 6.644C58.5059 6.468 58.5659 6.228 58.5659 5.924C58.5659 5.46 58.4379 5.164 58.1819 5.036C57.9339 4.9 57.5859 4.832 57.1379 4.832H56.5139V7.112ZM69.6334 13.004C69.6734 13.196 69.7734 13.36 69.9334 13.496C70.1014 13.624 70.3134 13.724 70.5694 13.796C70.8334 13.868 71.1294 13.904 71.4574 13.904C71.8094 13.904 72.1534 13.888 72.4894 13.856C72.8254 13.824 73.1334 13.772 73.4134 13.7C73.6934 13.628 73.9174 13.536 74.0854 13.424L75.7774 16.388C75.6254 16.484 75.3734 16.604 75.0214 16.748C74.6774 16.884 74.1894 17.008 73.5574 17.12C72.9334 17.232 72.1254 17.288 71.1334 17.288C70.0214 17.288 69.0134 17.1 68.1094 16.724C67.2054 16.348 66.4854 15.768 65.9494 14.984C65.4214 14.192 65.1574 13.188 65.1574 11.972C65.1574 11.012 65.3774 10.148 65.8174 9.38C66.2574 8.604 66.8934 7.992 67.7254 7.544C68.5574 7.088 69.5654 6.86 70.7494 6.86C71.8934 6.86 72.8814 7.052 73.7134 7.436C74.5534 7.82 75.1974 8.412 75.6454 9.212C76.1014 10.004 76.3294 11.02 76.3294 12.26C76.3294 12.324 76.3254 12.452 76.3174 12.644C76.3174 12.828 76.3094 12.948 76.2934 13.004H69.6334ZM71.8774 11.072C71.8694 10.808 71.8174 10.588 71.7214 10.412C71.6334 10.236 71.5134 10.108 71.3614 10.028C71.2094 9.94 71.0294 9.896 70.8214 9.896C70.6374 9.896 70.4614 9.936 70.2934 10.016C70.1334 10.088 70.0014 10.212 69.8974 10.388C69.7934 10.556 69.7374 10.784 69.7294 11.072H71.8774ZM82.8616 6.86C83.5896 6.86 84.2536 6.916 84.8536 7.028C85.4536 7.14 85.9496 7.264 86.3416 7.4C86.7336 7.528 86.9736 7.624 87.0616 7.688L85.6216 10.412C85.4776 10.316 85.2016 10.184 84.7936 10.016C84.3856 9.848 83.9336 9.764 83.4376 9.764C83.1656 9.764 82.9416 9.788 82.7656 9.836C82.5896 9.876 82.5016 9.96 82.5016 10.088C82.5016 10.216 82.6096 10.324 82.8256 10.412C83.0416 10.492 83.3816 10.568 83.8456 10.64C84.2856 10.72 84.7576 10.864 85.2616 11.072C85.7736 11.272 86.2096 11.58 86.5696 11.996C86.9296 12.412 87.1096 12.972 87.1096 13.676C87.1096 14.444 86.9376 15.068 86.5936 15.548C86.2576 16.02 85.8176 16.384 85.2736 16.64C84.7376 16.888 84.1616 17.056 83.5456 17.144C82.9296 17.24 82.3496 17.288 81.8056 17.288C80.9576 17.288 80.2296 17.216 79.6216 17.072C79.0216 16.928 78.5456 16.768 78.1936 16.592C77.8416 16.416 77.6056 16.284 77.4856 16.196L78.8896 13.16C79.0976 13.32 79.4336 13.508 79.8976 13.724C80.3696 13.94 80.8456 14.048 81.3256 14.048C81.7256 14.048 82.0176 14.02 82.2016 13.964C82.3856 13.9 82.4776 13.812 82.4776 13.7C82.4776 13.612 82.4336 13.536 82.3456 13.472C82.2576 13.408 82.1176 13.348 81.9256 13.292C81.7336 13.236 81.4816 13.18 81.1696 13.124C80.8896 13.068 80.5696 12.976 80.2096 12.848C79.8576 12.72 79.5136 12.536 79.1776 12.296C78.8496 12.056 78.5776 11.744 78.3616 11.36C78.1456 10.976 78.0376 10.508 78.0376 9.956C78.0376 9.244 78.2696 8.66 78.7336 8.204C79.1976 7.748 79.7976 7.412 80.5336 7.196C81.2696 6.972 82.0456 6.86 82.8616 6.86ZM87.7188 7.148H89.2188V3.104H93.8867V7.148H95.8788V10.988H93.8867V12.26C93.8867 12.548 93.9188 12.812 93.9828 13.052C94.0548 13.292 94.2388 13.412 94.5348 13.412C94.6948 13.412 94.8428 13.372 94.9788 13.292C95.1228 13.212 95.2108 13.156 95.2428 13.124L96.7788 16.448C96.7148 16.504 96.5068 16.6 96.1548 16.736C95.8108 16.872 95.3708 16.996 94.8348 17.108C94.3068 17.228 93.7268 17.288 93.0948 17.288C91.9588 17.288 91.0268 16.98 90.2988 16.364C89.5788 15.748 89.2188 14.808 89.2188 13.544V10.988H87.7188V7.148ZM7.01566 39.288C5.89566 39.288 4.89966 39.072 4.02766 38.64C3.15566 38.2 2.47166 37.592 1.97566 36.816C1.47966 36.032 1.23166 35.128 1.23166 34.104C1.23166 33.08 1.47966 32.176 1.97566 31.392C2.47166 30.6 3.15566 29.98 4.02766 29.532C4.89966 29.084 5.89566 28.86 7.01566 28.86C8.13566 28.86 9.12366 29.084 9.97966 29.532C10.8357 29.98 11.5037 30.6 11.9837 31.392C12.4717 32.176 12.7157 33.08 12.7157 34.104C12.7157 35.128 12.4717 36.032 11.9837 36.816C11.5037 37.592 10.8357 38.2 9.97966 38.64C9.12366 39.072 8.13566 39.288 7.01566 39.288ZM7.01566 35.448C7.27966 35.448 7.50366 35.396 7.68766 35.292C7.87166 35.18 8.01166 35.02 8.10766 34.812C8.21166 34.604 8.26366 34.36 8.26366 34.08C8.26366 33.8 8.21166 33.556 8.10766 33.348C8.01166 33.14 7.87166 32.98 7.68766 32.868C7.50366 32.756 7.27966 32.7 7.01566 32.7C6.75166 32.7 6.52366 32.756 6.33166 32.868C6.14766 32.98 6.00366 33.14 5.89966 33.348C5.79566 33.556 5.74366 33.8 5.74366 34.08C5.74366 34.36 5.79566 34.604 5.89966 34.812C6.00366 35.02 6.14766 35.18 6.33166 35.292C6.52366 35.396 6.75166 35.448 7.01566 35.448ZM13.5787 29.148H14.9467V26.676C14.9467 25.748 15.1707 24.952 15.6187 24.288C16.0747 23.616 16.6627 23.1 17.3827 22.74C18.1027 22.38 18.8587 22.2 19.6507 22.2C20.6347 22.2 21.3787 22.332 21.8827 22.596C22.3947 22.852 22.7227 23.052 22.8667 23.196L21.0907 26.616C21.0507 26.552 20.9667 26.464 20.8387 26.352C20.7107 26.232 20.5547 26.172 20.3707 26.172C20.2587 26.172 20.1467 26.2 20.0347 26.256C19.9307 26.312 19.8427 26.404 19.7707 26.532C19.6987 26.66 19.6627 26.836 19.6627 27.06V29.148H21.8587V32.988H19.6627V39H14.9467V32.988H13.5787V29.148ZM35.0698 23.16H39.6178L46.1458 39H41.1898L40.1818 36.252H34.5298L33.5098 39H28.5418L35.0698 23.16ZM36.0898 32.22H38.6218L37.3738 28.728H37.3378L36.0898 32.22ZM51.3918 39H46.6638V29.148H51.3918V30.552H51.3318C51.4198 30.376 51.5838 30.156 51.8238 29.892C52.0718 29.628 52.4158 29.392 52.8558 29.184C53.3038 28.968 53.8638 28.86 54.5358 28.86C54.9838 28.86 55.4118 28.936 55.8198 29.088C56.2278 29.232 56.5318 29.376 56.7318 29.52L54.9198 33.336C54.8158 33.176 54.6198 33.016 54.3318 32.856C54.0438 32.688 53.6838 32.604 53.2518 32.604C52.7878 32.604 52.4198 32.7 52.1478 32.892C51.8758 33.076 51.6798 33.308 51.5598 33.588C51.4478 33.86 51.3918 34.128 51.3918 34.392V39ZM62.5157 39.288C61.3957 39.288 60.3997 39.072 59.5277 38.64C58.6557 38.2 57.9717 37.592 57.4757 36.816C56.9797 36.032 56.7317 35.128 56.7317 34.104C56.7317 33.08 56.9797 32.176 57.4757 31.392C57.9717 30.6 58.6557 29.98 59.5277 29.532C60.3997 29.084 61.3957 28.86 62.5157 28.86C63.6357 28.86 64.6237 29.084 65.4797 29.532C66.3357 29.98 67.0037 30.6 67.4837 31.392C67.9717 32.176 68.2157 33.08 68.2157 34.104C68.2157 35.128 67.9717 36.032 67.4837 36.816C67.0037 37.592 66.3357 38.2 65.4797 38.64C64.6237 39.072 63.6357 39.288 62.5157 39.288ZM62.5157 35.448C62.7797 35.448 63.0037 35.396 63.1877 35.292C63.3717 35.18 63.5117 35.02 63.6077 34.812C63.7117 34.604 63.7637 34.36 63.7637 34.08C63.7637 33.8 63.7117 33.556 63.6077 33.348C63.5117 33.14 63.3717 32.98 63.1877 32.868C63.0037 32.756 62.7797 32.7 62.5157 32.7C62.2517 32.7 62.0237 32.756 61.8317 32.868C61.6477 32.98 61.5037 33.14 61.3997 33.348C61.2957 33.556 61.2437 33.8 61.2437 34.08C61.2437 34.36 61.2957 34.604 61.3997 34.812C61.5037 35.02 61.6477 35.18 61.8317 35.292C62.0237 35.396 62.2517 35.448 62.5157 35.448ZM84.5565 28.86C85.3085 28.86 85.9845 29.012 86.5845 29.316C87.1925 29.612 87.6725 30.08 88.0245 30.72C88.3845 31.352 88.5645 32.172 88.5645 33.18V39H83.9205V33.816C83.9205 33.392 83.8485 33.008 83.7045 32.664C83.5605 32.32 83.2365 32.148 82.7325 32.148C82.3965 32.148 82.1245 32.232 81.9165 32.4C81.7085 32.56 81.5565 32.768 81.4605 33.024C81.3725 33.272 81.3285 33.536 81.3285 33.816V39H77.0205V33.816C77.0205 33.392 76.9525 33.008 76.8165 32.664C76.6885 32.32 76.3685 32.148 75.8565 32.148C75.5205 32.148 75.2445 32.232 75.0285 32.4C74.8205 32.56 74.6685 32.768 74.5725 33.024C74.4765 33.272 74.4285 33.536 74.4285 33.816V39H69.7485V29.148H74.4285V30.48C74.5325 30.232 74.7565 29.984 75.1005 29.736C75.4525 29.488 75.8725 29.28 76.3605 29.112C76.8565 28.944 77.3645 28.86 77.8845 28.86C78.4605 28.86 78.9405 28.924 79.3245 29.052C79.7165 29.172 80.0445 29.356 80.3085 29.604C80.5725 29.844 80.8045 30.14 81.0045 30.492C81.1085 30.244 81.3325 29.996 81.6765 29.748C82.0205 29.492 82.4445 29.28 82.9485 29.112C83.4525 28.944 83.9885 28.86 84.5565 28.86ZM94.1842 35.004C94.2242 35.196 94.3242 35.36 94.4842 35.496C94.6522 35.624 94.8642 35.724 95.1202 35.796C95.3842 35.868 95.6802 35.904 96.0082 35.904C96.3602 35.904 96.7042 35.888 97.0402 35.856C97.3762 35.824 97.6842 35.772 97.9642 35.7C98.2442 35.628 98.4682 35.536 98.6362 35.424L100.328 38.388C100.176 38.484 99.9242 38.604 99.5722 38.748C99.2282 38.884 98.7402 39.008 98.1082 39.12C97.4842 39.232 96.6762 39.288 95.6842 39.288C94.5722 39.288 93.5642 39.1 92.6602 38.724C91.7562 38.348 91.0362 37.768 90.5002 36.984C89.9722 36.192 89.7082 35.188 89.7082 33.972C89.7082 33.012 89.9282 32.148 90.3682 31.38C90.8082 30.604 91.4442 29.992 92.2762 29.544C93.1082 29.088 94.1162 28.86 95.3002 28.86C96.4442 28.86 97.4322 29.052 98.2642 29.436C99.1042 29.82 99.7482 30.412 100.196 31.212C100.652 32.004 100.88 33.02 100.88 34.26C100.88 34.324 100.876 34.452 100.868 34.644C100.868 34.828 100.86 34.948 100.844 35.004H94.1842ZM96.4282 33.072C96.4202 32.808 96.3682 32.588 96.2722 32.412C96.1842 32.236 96.0642 32.108 95.9122 32.028C95.7602 31.94 95.5802 31.896 95.3722 31.896C95.1882 31.896 95.0122 31.936 94.8442 32.016C94.6842 32.088 94.5522 32.212 94.4482 32.388C94.3442 32.556 94.2882 32.784 94.2802 33.072H96.4282Z" fill="#AE7137"/>
</svg>
