<svg width="98" height="36" viewBox="0 0 98 36" fill="none" xmlns="http://www.w3.org/2000/svg">
<circle cx="94" cy="28.5" r="3.5" fill="#AE7137"/>
<path d="M2.91 4.16H0.06V0.799999H9.63V4.16H6.78V14H2.91V4.16ZM17.5797 5.55C18.1864 5.55 18.773 5.67 19.3397 5.91C19.913 6.14333 20.383 6.52 20.7497 7.04C21.123 7.55333 21.3097 8.23 21.3097 9.07V14H17.3697V9.68C17.3697 9.25333 17.2764 8.91667 17.0897 8.67C16.9097 8.41667 16.643 8.29 16.2897 8.29C16.0564 8.29 15.833 8.34667 15.6197 8.46C15.413 8.57333 15.2464 8.73333 15.1197 8.94C14.993 9.14667 14.9297 9.39333 14.9297 9.68V14H10.9897V0.24H14.9297V6.82C15.0164 6.60667 15.1864 6.40333 15.4397 6.21C15.693 6.01667 16.0064 5.86 16.3797 5.74C16.753 5.61333 17.153 5.55 17.5797 5.55ZM26.0813 10.67C26.1146 10.83 26.1979 10.9667 26.3313 11.08C26.4713 11.1867 26.6479 11.27 26.8613 11.33C27.0813 11.39 27.3279 11.42 27.6013 11.42C27.8946 11.42 28.1813 11.4067 28.4613 11.38C28.7413 11.3533 28.9979 11.31 29.2313 11.25C29.4646 11.19 29.6513 11.1133 29.7913 11.02L31.2013 13.49C31.0746 13.57 30.8646 13.67 30.5713 13.79C30.2846 13.9033 29.8779 14.0067 29.3513 14.1C28.8313 14.1933 28.1579 14.24 27.3313 14.24C26.4046 14.24 25.5646 14.0833 24.8113 13.77C24.0579 13.4567 23.4579 12.9733 23.0113 12.32C22.5713 11.66 22.3513 10.8233 22.3513 9.81C22.3513 9.01 22.5346 8.29 22.9013 7.65C23.2679 7.00333 23.7979 6.49333 24.4913 6.12C25.1846 5.74 26.0246 5.55 27.0113 5.55C27.9646 5.55 28.7879 5.71 29.4813 6.03C30.1813 6.35 30.7179 6.84333 31.0913 7.51C31.4713 8.17 31.6613 9.01667 31.6613 10.05C31.6613 10.1033 31.6579 10.21 31.6513 10.37C31.6513 10.5233 31.6446 10.6233 31.6313 10.67H26.0813ZM27.9513 9.06C27.9446 8.84 27.9013 8.65667 27.8213 8.51C27.7479 8.36333 27.6479 8.25667 27.5213 8.19C27.3946 8.11667 27.2446 8.08 27.0713 8.08C26.9179 8.08 26.7713 8.11333 26.6313 8.18C26.4979 8.24 26.3879 8.34333 26.3013 8.49C26.2146 8.63 26.1679 8.82 26.1613 9.06H27.9513ZM38.612 0.799999H43.732C44.5054 0.799999 45.2187 0.909999 45.872 1.13C46.5254 1.34333 47.0487 1.69 47.442 2.17C47.842 2.64333 48.042 3.27333 48.042 4.06C48.042 4.56 47.9487 5.00667 47.762 5.4C47.582 5.78667 47.3287 6.10667 47.002 6.36C46.682 6.61333 46.312 6.79333 45.892 6.9C46.2787 6.95333 46.632 7.06 46.952 7.22C47.272 7.37333 47.5487 7.58333 47.782 7.85C48.022 8.11667 48.2054 8.44667 48.332 8.84C48.4654 9.23333 48.532 9.69333 48.532 10.22C48.532 10.9733 48.352 11.6333 47.992 12.2C47.6387 12.7667 47.132 13.21 46.472 13.53C45.8187 13.8433 45.0354 14 44.122 14H38.612V0.799999ZM42.492 10.94H43.032C43.3187 10.94 43.5654 10.91 43.772 10.85C43.9854 10.7833 44.1487 10.67 44.262 10.51C44.382 10.3433 44.442 10.1133 44.442 9.82C44.442 9.38 44.3154 9.09333 44.062 8.96C43.8087 8.82 43.4654 8.75 43.032 8.75H42.492V10.94ZM42.492 5.76H43.012C43.2587 5.76 43.4687 5.73333 43.642 5.68C43.822 5.62 43.9587 5.51667 44.052 5.37C44.152 5.22333 44.202 5.02333 44.202 4.77C44.202 4.38333 44.0954 4.13667 43.882 4.03C43.6754 3.91667 43.3854 3.86 43.012 3.86H42.492V5.76ZM53.425 10.67C53.4583 10.83 53.5417 10.9667 53.675 11.08C53.815 11.1867 53.9917 11.27 54.205 11.33C54.425 11.39 54.6717 11.42 54.945 11.42C55.2383 11.42 55.525 11.4067 55.805 11.38C56.085 11.3533 56.3417 11.31 56.575 11.25C56.8083 11.19 56.995 11.1133 57.135 11.02L58.545 13.49C58.4183 13.57 58.2083 13.67 57.915 13.79C57.6283 13.9033 57.2217 14.0067 56.695 14.1C56.175 14.1933 55.5017 14.24 54.675 14.24C53.7483 14.24 52.9083 14.0833 52.155 13.77C51.4017 13.4567 50.8017 12.9733 50.355 12.32C49.915 11.66 49.695 10.8233 49.695 9.81C49.695 9.01 49.8783 8.29 50.245 7.65C50.6117 7.00333 51.1417 6.49333 51.835 6.12C52.5283 5.74 53.3683 5.55 54.355 5.55C55.3083 5.55 56.1317 5.71 56.825 6.03C57.525 6.35 58.0617 6.84333 58.435 7.51C58.815 8.17 59.005 9.01667 59.005 10.05C59.005 10.1033 59.0017 10.21 58.995 10.37C58.995 10.5233 58.9883 10.6233 58.975 10.67H53.425ZM55.295 9.06C55.2883 8.84 55.245 8.65667 55.165 8.51C55.0917 8.36333 54.9917 8.25667 54.865 8.19C54.7383 8.11667 54.5883 8.08 54.415 8.08C54.2617 8.08 54.115 8.11333 53.975 8.18C53.8417 8.24 53.7317 8.34333 53.645 8.49C53.5583 8.63 53.5117 8.82 53.505 9.06H55.295ZM64.4484 5.55C65.0551 5.55 65.6084 5.59667 66.1084 5.69C66.6084 5.78333 67.0218 5.88667 67.3484 6C67.6751 6.10667 67.8751 6.18667 67.9484 6.24L66.7484 8.51C66.6284 8.43 66.3984 8.32 66.0584 8.18C65.7184 8.04 65.3418 7.97 64.9284 7.97C64.7018 7.97 64.5151 7.99 64.3684 8.03C64.2218 8.06333 64.1484 8.13333 64.1484 8.24C64.1484 8.34667 64.2384 8.43667 64.4184 8.51C64.5984 8.57667 64.8818 8.64 65.2684 8.7C65.6351 8.76667 66.0284 8.88667 66.4484 9.06C66.8751 9.22667 67.2384 9.48333 67.5384 9.83C67.8384 10.1767 67.9884 10.6433 67.9884 11.23C67.9884 11.87 67.8451 12.39 67.5584 12.79C67.2784 13.1833 66.9118 13.4867 66.4584 13.7C66.0118 13.9067 65.5318 14.0467 65.0184 14.12C64.5051 14.2 64.0218 14.24 63.5684 14.24C62.8618 14.24 62.2551 14.18 61.7484 14.06C61.2484 13.94 60.8518 13.8067 60.5584 13.66C60.2651 13.5133 60.0684 13.4033 59.9684 13.33L61.1384 10.8C61.3118 10.9333 61.5918 11.09 61.9784 11.27C62.3718 11.45 62.7684 11.54 63.1684 11.54C63.5018 11.54 63.7451 11.5167 63.8984 11.47C64.0518 11.4167 64.1284 11.3433 64.1284 11.25C64.1284 11.1767 64.0918 11.1133 64.0184 11.06C63.9451 11.0067 63.8284 10.9567 63.6684 10.91C63.5084 10.8633 63.2984 10.8167 63.0384 10.77C62.8051 10.7233 62.5384 10.6467 62.2384 10.54C61.9451 10.4333 61.6584 10.28 61.3784 10.08C61.1051 9.88 60.8784 9.62 60.6984 9.3C60.5184 8.98 60.4284 8.59 60.4284 8.13C60.4284 7.53667 60.6218 7.05 61.0084 6.67C61.3951 6.29 61.8951 6.01 62.5084 5.83C63.1218 5.64333 63.7684 5.55 64.4484 5.55ZM68.4961 5.79H69.7461V2.42H73.6361V5.79H75.2961V8.99H73.6361V10.05C73.6361 10.29 73.6628 10.51 73.7161 10.71C73.7761 10.91 73.9294 11.01 74.1761 11.01C74.3094 11.01 74.4328 10.9767 74.5461 10.91C74.6661 10.8433 74.7394 10.7967 74.7661 10.77L76.0461 13.54C75.9928 13.5867 75.8194 13.6667 75.5261 13.78C75.2394 13.8933 74.8728 13.9967 74.4261 14.09C73.9861 14.19 73.5028 14.24 72.9761 14.24C72.0294 14.24 71.2528 13.9833 70.6461 13.47C70.0461 12.9567 69.7461 12.1733 69.7461 11.12V8.99H68.4961V5.79ZM5.14 32.24C4.20667 32.24 3.37667 32.06 2.65 31.7C1.92333 31.3333 1.35333 30.8267 0.94 30.18C0.526667 29.5267 0.32 28.7733 0.32 27.92C0.32 27.0667 0.526667 26.3133 0.94 25.66C1.35333 25 1.92333 24.4833 2.65 24.11C3.37667 23.7367 4.20667 23.55 5.14 23.55C6.07333 23.55 6.89667 23.7367 7.61 24.11C8.32333 24.4833 8.88 25 9.28 25.66C9.68667 26.3133 9.89 27.0667 9.89 27.92C9.89 28.7733 9.68667 29.5267 9.28 30.18C8.88 30.8267 8.32333 31.3333 7.61 31.7C6.89667 32.06 6.07333 32.24 5.14 32.24ZM5.14 29.04C5.36 29.04 5.54667 28.9967 5.7 28.91C5.85333 28.8167 5.97 28.6833 6.05 28.51C6.13667 28.3367 6.18 28.1333 6.18 27.9C6.18 27.6667 6.13667 27.4633 6.05 27.29C5.97 27.1167 5.85333 26.9833 5.7 26.89C5.54667 26.7967 5.36 26.75 5.14 26.75C4.92 26.75 4.73 26.7967 4.57 26.89C4.41667 26.9833 4.29667 27.1167 4.21 27.29C4.12333 27.4633 4.08 27.6667 4.08 27.9C4.08 28.1333 4.12333 28.3367 4.21 28.51C4.29667 28.6833 4.41667 28.8167 4.57 28.91C4.73 28.9967 4.92 29.04 5.14 29.04ZM10.6092 23.79H11.7492V21.73C11.7492 20.9567 11.9359 20.2933 12.3092 19.74C12.6892 19.18 13.1792 18.75 13.7792 18.45C14.3792 18.15 15.0092 18 15.6692 18C16.4892 18 17.1092 18.11 17.5292 18.33C17.9559 18.5433 18.2292 18.71 18.3492 18.83L16.8692 21.68C16.8359 21.6267 16.7659 21.5533 16.6592 21.46C16.5526 21.36 16.4226 21.31 16.2692 21.31C16.1759 21.31 16.0826 21.3333 15.9892 21.38C15.9026 21.4267 15.8292 21.5033 15.7692 21.61C15.7092 21.7167 15.6792 21.8633 15.6792 22.05V23.79H17.5092V26.99H15.6792V32H11.7492V26.99H10.6092V23.79ZM28.5184 18.8H32.3084L37.7484 32H33.6184L32.7784 29.71H28.0684L27.2184 32H23.0784L28.5184 18.8ZM29.3684 26.35H31.4784L30.4384 23.44H30.4084L29.3684 26.35ZM42.1202 32H38.1802V23.79H42.1202V24.96H42.0702C42.1435 24.8133 42.2802 24.63 42.4802 24.41C42.6868 24.19 42.9735 23.9933 43.3402 23.82C43.7135 23.64 44.1802 23.55 44.7402 23.55C45.1135 23.55 45.4702 23.6133 45.8102 23.74C46.1502 23.86 46.4035 23.98 46.5702 24.1L45.0602 27.28C44.9735 27.1467 44.8102 27.0133 44.5702 26.88C44.3302 26.74 44.0302 26.67 43.6702 26.67C43.2835 26.67 42.9768 26.75 42.7502 26.91C42.5235 27.0633 42.3602 27.2567 42.2602 27.49C42.1668 27.7167 42.1202 27.94 42.1202 28.16V32ZM51.39 32.24C50.4567 32.24 49.6267 32.06 48.9 31.7C48.1733 31.3333 47.6033 30.8267 47.19 30.18C46.7767 29.5267 46.57 28.7733 46.57 27.92C46.57 27.0667 46.7767 26.3133 47.19 25.66C47.6033 25 48.1733 24.4833 48.9 24.11C49.6267 23.7367 50.4567 23.55 51.39 23.55C52.3233 23.55 53.1467 23.7367 53.86 24.11C54.5733 24.4833 55.13 25 55.53 25.66C55.9367 26.3133 56.14 27.0667 56.14 27.92C56.14 28.7733 55.9367 29.5267 55.53 30.18C55.13 30.8267 54.5733 31.3333 53.86 31.7C53.1467 32.06 52.3233 32.24 51.39 32.24ZM51.39 29.04C51.61 29.04 51.7967 28.9967 51.95 28.91C52.1033 28.8167 52.22 28.6833 52.3 28.51C52.3867 28.3367 52.43 28.1333 52.43 27.9C52.43 27.6667 52.3867 27.4633 52.3 27.29C52.22 27.1167 52.1033 26.9833 51.95 26.89C51.7967 26.7967 51.61 26.75 51.39 26.75C51.17 26.75 50.98 26.7967 50.82 26.89C50.6667 26.9833 50.5467 27.1167 50.46 27.29C50.3733 27.4633 50.33 27.6667 50.33 27.9C50.33 28.1333 50.3733 28.3367 50.46 28.51C50.5467 28.6833 50.6667 28.8167 50.82 28.91C50.98 28.9967 51.17 29.04 51.39 29.04ZM69.7573 23.55C70.384 23.55 70.9473 23.6767 71.4473 23.93C71.954 24.1767 72.354 24.5667 72.6473 25.1C72.9473 25.6267 73.0973 26.31 73.0973 27.15V32H69.2273V27.68C69.2273 27.3267 69.1673 27.0067 69.0473 26.72C68.9273 26.4333 68.6573 26.29 68.2373 26.29C67.9573 26.29 67.7307 26.36 67.5573 26.5C67.384 26.6333 67.2573 26.8067 67.1773 27.02C67.104 27.2267 67.0673 27.4467 67.0673 27.68V32H63.4773V27.68C63.4773 27.3267 63.4207 27.0067 63.3073 26.72C63.2007 26.4333 62.934 26.29 62.5073 26.29C62.2273 26.29 61.9973 26.36 61.8173 26.5C61.644 26.6333 61.5173 26.8067 61.4373 27.02C61.3573 27.2267 61.3173 27.4467 61.3173 27.68V32H57.4173V23.79H61.3173V24.9C61.404 24.6933 61.5907 24.4867 61.8773 24.28C62.1707 24.0733 62.5207 23.9 62.9273 23.76C63.3407 23.62 63.764 23.55 64.1973 23.55C64.6773 23.55 65.0773 23.6033 65.3973 23.71C65.724 23.81 65.9973 23.9633 66.2173 24.17C66.4373 24.37 66.6307 24.6167 66.7973 24.91C66.884 24.7033 67.0707 24.4967 67.3573 24.29C67.644 24.0767 67.9973 23.9 68.4173 23.76C68.8373 23.62 69.284 23.55 69.7573 23.55ZM77.7805 28.67C77.8138 28.83 77.8971 28.9667 78.0305 29.08C78.1705 29.1867 78.3471 29.27 78.5605 29.33C78.7805 29.39 79.0271 29.42 79.3005 29.42C79.5938 29.42 79.8805 29.4067 80.1605 29.38C80.4405 29.3533 80.6971 29.31 80.9305 29.25C81.1638 29.19 81.3505 29.1133 81.4905 29.02L82.9005 31.49C82.7738 31.57 82.5638 31.67 82.2705 31.79C81.9838 31.9033 81.5771 32.0067 81.0505 32.1C80.5305 32.1933 79.8571 32.24 79.0305 32.24C78.1038 32.24 77.2638 32.0833 76.5105 31.77C75.7571 31.4567 75.1571 30.9733 74.7105 30.32C74.2705 29.66 74.0505 28.8233 74.0505 27.81C74.0505 27.01 74.2338 26.29 74.6005 25.65C74.9671 25.0033 75.4971 24.4933 76.1905 24.12C76.8838 23.74 77.7238 23.55 78.7105 23.55C79.6638 23.55 80.4871 23.71 81.1805 24.03C81.8805 24.35 82.4171 24.8433 82.7905 25.51C83.1705 26.17 83.3605 27.0167 83.3605 28.05C83.3605 28.1033 83.3571 28.21 83.3505 28.37C83.3505 28.5233 83.3438 28.6233 83.3305 28.67H77.7805ZM79.6505 27.06C79.6438 26.84 79.6005 26.6567 79.5205 26.51C79.4471 26.3633 79.3471 26.2567 79.2205 26.19C79.0938 26.1167 78.9438 26.08 78.7705 26.08C78.6171 26.08 78.4705 26.1133 78.3305 26.18C78.1971 26.24 78.0871 26.3433 78.0005 26.49C77.9138 26.63 77.8671 26.82 77.8605 27.06H79.6505Z" fill="#AE7137"/>
</svg>
